<svg width="124" height="24" viewBox="0 0 124 24" fill="none" xmlns="http://www.w3.org/2000/svg">
<path d="M5.857 18.708C7.495 18.708 8.852 18.348 9.927 17.628C11.002 16.907 11.54 15.859 11.54 14.484C11.457 12.629 10.076 11.238 7.396 10.311L5.956 9.714C5.642 9.614 5.418 9.516 5.286 9.416C5.225 9.37477 5.17505 9.3192 5.14053 9.25417C5.10601 9.18914 5.08797 9.11663 5.088 9.043C5.088 8.629 5.361 8.423 5.907 8.423C6.585 8.423 7.089 8.77 7.42 9.466L11.118 8.422C10.225 6.202 8.504 5.093 5.956 5.093C4.434 5.093 3.168 5.491 2.159 6.286C1.15 7.08 0.645 8.116 0.645 9.39C0.645 9.788 0.703 10.156 0.819 10.496C0.935 10.836 1.109 11.134 1.34 11.39C1.572 11.647 1.795 11.87 2.01 12.061C2.225 12.251 2.498 12.43 2.83 12.595C3.16 12.761 3.412 12.881 3.586 12.955C3.76 13.03 3.996 13.117 4.293 13.216L4.715 13.366L6.205 13.912C6.568 14.045 6.805 14.156 6.912 14.247C6.96428 14.2909 7.00587 14.3461 7.03359 14.4085C7.06132 14.4709 7.07445 14.5388 7.072 14.607C7.072 15.038 6.668 15.254 5.857 15.254C4.666 15.254 3.954 14.724 3.723 13.664L0 14.509C0.463 17.309 2.416 18.709 5.857 18.709V18.708ZM17.493 18.708C19.131 18.708 20.338 18.078 21.116 16.82V18.435H26.228V5.366H21.116V12.522C21.116 13.996 20.611 14.732 19.602 14.732C18.576 14.732 18.063 13.996 18.063 12.522V5.366H12.951V13.019C12.951 16.812 14.465 18.709 17.493 18.709V18.708ZM33.596 18.435V11.28C33.596 9.805 34.1 9.068 35.109 9.068C36.135 9.068 36.649 9.805 36.649 11.28V18.435H41.76V10.783C41.76 6.99 40.247 5.093 37.219 5.093C35.581 5.093 34.373 5.723 33.596 6.981V5.366H28.483V18.435H33.596V18.435ZM48.979 18.435V11.28C48.979 9.805 49.483 9.068 50.493 9.068C51.518 9.068 52.031 9.805 52.031 11.28V18.435H57.144V10.783C57.144 6.99 55.63 5.093 52.602 5.093C50.964 5.093 49.756 5.723 48.979 6.981V5.366H43.866V18.435H48.979V18.435ZM64.958 24L73.247 5.366H67.91L65.378 12.05L63.12 5.366H57.536L62.971 17.168L59.944 24H64.958ZM78.628 18.708C80.266 18.708 81.623 18.348 82.698 17.628C83.774 16.907 84.312 15.859 84.312 14.484C84.229 12.629 82.847 11.238 80.167 10.311L78.727 9.714C78.413 9.614 78.19 9.516 78.057 9.416C77.996 9.37477 77.9461 9.3192 77.9115 9.25417C77.877 9.18914 77.859 9.11663 77.859 9.043C77.859 8.629 78.132 8.423 78.678 8.423C79.356 8.423 79.861 8.77 80.192 9.466L83.89 8.422C82.996 6.202 81.276 5.093 78.728 5.093C77.206 5.093 75.94 5.491 74.931 6.286C73.921 7.081 73.417 8.116 73.417 9.391C73.417 9.789 73.475 10.157 73.59 10.497C73.706 10.837 73.88 11.135 74.112 11.391C74.343 11.648 74.567 11.871 74.782 12.062C74.997 12.252 75.27 12.431 75.601 12.596C75.931 12.762 76.184 12.882 76.358 12.956C76.531 13.031 76.768 13.118 77.065 13.217L77.487 13.367L78.976 13.913C79.34 14.046 79.576 14.157 79.683 14.248C79.7355 14.2918 79.7772 14.347 79.8051 14.4094C79.833 14.4718 79.8463 14.5397 79.844 14.608C79.844 15.039 79.439 15.255 78.628 15.255C77.438 15.255 76.726 14.725 76.494 13.665L72.771 14.509C73.235 17.309 75.187 18.709 78.628 18.709V18.708ZM88.428 4.571C89.338 4.571 90.041 4.356 90.538 3.925C91.033 3.495 91.282 2.948 91.282 2.285C91.282 1.607 91.042 1.055 90.562 0.634C90.082 0.21 89.371 0 88.428 0C87.485 0 86.773 0.211 86.293 0.634C85.813 1.056 85.573 1.607 85.573 2.286C85.573 2.948 85.822 3.495 86.318 3.926C86.815 4.356 87.518 4.571 88.428 4.571V4.571ZM90.984 18.435V5.366H85.87V18.435H90.983H90.984ZM98.724 18.708C100.461 18.708 101.701 18.078 102.446 16.82V18.435H107.558V0.472H102.446V7.006C101.701 5.731 100.461 5.093 98.723 5.093C96.97 5.093 95.509 5.735 94.343 7.019C93.177 8.302 92.593 9.929 92.593 11.901C92.593 13.871 93.177 15.499 94.343 16.783C95.509 18.066 96.97 18.708 98.723 18.708H98.724ZM100.114 14.808C99.385 14.808 98.802 14.534 98.364 13.988C97.925 13.441 97.706 12.745 97.706 11.901C97.706 11.056 97.921 10.361 98.351 9.814C98.798 9.267 99.385 8.994 100.113 8.994C100.841 8.994 101.424 9.267 101.863 9.814C102.301 10.36 102.52 11.056 102.52 11.901C102.52 12.745 102.301 13.441 101.863 13.988C101.424 14.534 100.841 14.808 100.113 14.808H100.114ZM116.812 18.708C119.409 18.708 121.436 17.954 122.892 16.448L120.782 13.615C119.74 14.46 118.565 14.882 117.258 14.882C116.266 14.882 115.459 14.658 114.838 14.212C114.218 13.764 113.908 13.333 113.908 12.919H123.512C123.595 12.621 123.636 12.232 123.636 11.752C123.636 9.698 122.962 8.075 121.614 6.882C120.265 5.689 118.541 5.093 116.439 5.093C114.189 5.093 112.411 5.764 111.104 7.106C109.797 8.447 109.143 10.062 109.143 11.95C109.143 13.888 109.833 15.499 111.215 16.783C112.597 18.066 114.462 18.708 116.812 18.708V18.708ZM119.02 10.559H113.908C113.941 9.946 114.206 9.479 114.702 9.155C115.198 8.832 115.786 8.671 116.464 8.671C117.142 8.671 117.73 8.836 118.226 9.168C118.723 9.499 118.987 9.963 119.02 10.559Z" fill="#2C7566"/>
</svg>
